<svg width="69" height="39" viewBox="0 0 69 39" fill="none" xmlns="http://www.w3.org/2000/svg">
<path d="M15.8563 0.0732399C39.2049 -1.8257 43.4826 33.7909 20.3036 38.4434C15.5289 38.6006 12.236 38.3802 8.07116 35.7627C-4.12477 28.098 -2.21468 5.53551 11.8768 1.00293C13.2214 0.570416 14.4828 0.320357 15.8563 0.0732399ZM18.8319 17.7998C18.2613 17.4547 17.548 17.4465 16.9696 17.7793C16.1115 18.274 15.8023 19.3612 16.2714 20.2334C16.7405 21.1054 17.8185 21.447 18.704 21.0039C19.3007 20.7053 19.6882 20.1057 19.7147 19.4395C19.7415 18.7731 19.4029 18.145 18.8319 17.7998Z" fill="white"/>
<path d="M37.585 0.362482C43.113 0.339918 53.7236 -0.240067 58.7198 1.32781C72.0842 5.52197 71.9202 18.9996 59.3617 25.2214C62.3878 25.3282 65.7986 25.2708 68.8561 25.2895C68.9026 27.6414 69.2468 36.7342 68.5274 38.1505C58.7378 38.4071 54.7048 38.0235 50.9173 28.2704C50.887 31.5514 50.8789 34.8324 50.8937 38.1134L37.5801 38.1173L37.585 0.362482Z" fill="white"/>
</svg>
