<svg width="225" height="71" viewBox="0 0 225 71" fill="none" xmlns="http://www.w3.org/2000/svg">
<path d="M22.5868 0.118124C24.6857 -0.108352 31.4366 0.0603834 33.9699 0.0609954L58.0439 0.0718079C57.9776 9.62198 54.9191 17.2936 46.2744 22.261C41.8497 24.8035 37.8631 25.2172 32.8996 25.6365C39.5184 26.2713 45.3457 27.0784 50.7375 31.407C54.9209 34.7397 57.5753 39.6244 58.0951 44.9466C58.7278 51.0156 56.917 57.0868 53.0632 61.8187C48.6893 67.1831 43.0994 69.5122 36.3765 70.1867C24.8041 70.5368 11.7257 70.2524 0.0406752 70.2506L0.064556 46.3306H15.9859C18.6062 46.3293 22.3931 46.4385 24.9349 46.2379C23.7656 45.8601 21.8163 45.7907 20.5212 45.5722C15.8577 44.7852 11.3955 43.153 7.72836 40.1C3.32222 36.4299 0.566848 31.1511 0.0757801 25.4388C-0.421003 19.3076 1.53939 13.2301 5.5255 8.54387C9.91919 3.34552 15.8724 0.695334 22.5868 0.118124Z" fill="#65FF47"/>
<path d="M80.9036 19.8467C99.5825 18.3275 103.004 46.82 84.4612 50.542C80.6418 50.6678 78.0077 50.4921 74.6761 48.3984C64.919 42.2668 66.4467 24.2159 77.72 20.5898C78.7957 20.2438 79.8049 20.0444 80.9036 19.8467ZM83.2845 34.0273C82.828 33.7512 82.2569 33.7445 81.7942 34.0107C81.1078 34.4065 80.8604 35.2768 81.2356 35.9746C81.611 36.6722 82.4735 36.9453 83.1819 36.5908C83.6593 36.3519 83.9694 35.872 83.9905 35.3389C84.0119 34.8059 83.7412 34.3034 83.2845 34.0273Z" fill="white"/>
<path d="M98.2872 20.0781C102.71 20.06 111.198 19.596 115.195 20.8503C125.887 24.2057 125.755 34.9878 115.709 39.9652C118.129 40.0507 120.858 40.0047 123.304 40.0197C123.341 41.9012 123.617 49.1755 123.041 50.3085C115.209 50.5138 111.983 50.2069 108.953 42.4044C108.929 45.0292 108.922 47.654 108.934 50.2788L98.2832 50.282L98.2872 20.0781Z" fill="white"/>
<path d="M199.461 21.0264C199.859 11.7035 204.311 4.37213 213.438 1.30168C217.196 0.0371853 220.462 0.170745 224.352 0.198158L224.365 25.8235C224.366 32.1313 224.473 38.7955 224.32 45.0793C223.259 73.6472 185.47 79.6092 178.92 53.6937C178.132 57.7791 176.068 61.5122 173.021 64.3602C168.708 68.4215 163.075 70.3432 157.178 70.168C150.879 69.9353 144.93 67.2287 140.633 62.6402C137.362 59.0967 135.094 54.7529 134.06 50.0523C133.223 46.3155 133.396 32.8622 133.476 28.4658C133.64 19.3763 133.204 9.20855 133.522 0.207228C140.306 0.120043 145.763 0.503414 151.136 5.11517C156.186 9.4493 157.546 14.1666 158.364 20.4886C158.872 15.8383 159.92 12.0519 162.83 8.23468C166.089 3.96981 170.916 1.16523 176.25 0.43601C181.503 -0.250343 186.814 1.17472 191.009 4.39604C196.808 8.81488 198.56 14.1484 199.461 21.0264Z" fill="#A5D9FF"/>
</svg>
