<svg width="160" height="71" viewBox="0 0 160 71" fill="none" xmlns="http://www.w3.org/2000/svg">
<path d="M22.5868 0.118124C24.6857 -0.108352 31.4366 0.0603834 33.9699 0.0609954L58.0439 0.0718079C57.9776 9.62198 54.9191 17.2936 46.2744 22.261C41.8497 24.8035 37.8631 25.2172 32.8996 25.6365C39.5184 26.2713 45.3457 27.0784 50.7375 31.407C54.9209 34.7397 57.5753 39.6244 58.0951 44.9466C58.7278 51.0156 56.917 57.0868 53.0632 61.8187C48.6893 67.1831 43.0994 69.5122 36.3765 70.1867C24.8041 70.5368 11.7257 70.2524 0.0406752 70.2506L0.064556 46.3306H15.9859C18.6062 46.3293 22.3931 46.4385 24.9349 46.2379C23.7656 45.8601 21.8163 45.7907 20.5212 45.5722C15.8577 44.7852 11.3955 43.153 7.72836 40.1C3.32222 36.4299 0.566848 31.1511 0.0757801 25.4388C-0.421003 19.3076 1.53939 13.2301 5.5255 8.54387C9.91919 3.34552 15.8724 0.695334 22.5868 0.118124Z" fill="#65FF47"/>
<path d="M134.742 20.8457C135.14 11.5229 139.592 4.19147 148.719 1.12102C152.477 -0.143479 155.744 -0.00991889 159.634 0.017494L159.646 25.6428C159.647 31.9506 159.754 38.6149 159.601 44.8986C158.54 73.4666 120.751 79.4286 114.202 53.5131C113.414 57.5984 111.349 61.3315 108.303 64.1796C103.989 68.2408 98.3566 70.1626 92.4589 69.9874C86.1606 69.7547 80.2116 67.048 75.9143 62.4596C72.6432 58.9161 70.3751 54.5723 69.3413 49.8717C68.504 46.1349 68.6773 32.6815 68.7568 28.2851C68.9213 19.1956 68.4851 9.02789 68.803 0.0265642C75.5873 -0.0606212 81.0443 0.32275 86.4174 4.93451C91.4671 9.26863 92.8275 13.9859 93.6453 20.308C94.1531 15.6577 95.2008 11.8712 98.1109 8.05402C101.371 3.78914 106.197 0.98457 111.531 0.255346C116.784 -0.431008 122.096 0.994054 126.29 4.21538C132.09 8.63422 133.841 13.9678 134.742 20.8457Z" fill="#A5D9FF"/>
</svg>
