<svg width="356" height="71" viewBox="0 0 356 71" fill="none" xmlns="http://www.w3.org/2000/svg">
<path d="M127.055 19.636C128.043 12.9615 129.709 7.77643 135.517 3.67945C140.729 0.00338629 145.596 0.0164439 151.67 0.0898957L151.697 30.954C151.703 35.7377 151.966 45.171 151.336 49.4593C150.88 52.5623 149.853 55.5538 148.305 58.2819C145.23 63.8029 140.061 67.8537 133.963 69.5203C123.332 72.4308 111.776 67.7803 107.828 57.1334C107.487 56.213 107.231 55.2037 106.972 54.2541C104.515 64.3397 95.9616 70.5623 85.6391 70.3129C79.3691 70.1921 73.4075 67.5705 69.0814 63.032C66.0862 59.8477 63.9703 55.9396 62.9416 51.6915C61.7413 46.5982 62.0656 33.9796 62.0942 28.0767C62.1385 18.9654 61.9382 9.16732 62.1638 0.0996902C63.6319 0.0782667 65.1004 0.0711233 66.5687 0.0782644C72.3407 0.155797 76.9622 1.89987 81.1317 6.02501C84.1649 9.02593 86.6129 14.3302 86.5433 18.6363L86.9382 19.5236C87.0419 15.8655 88.83 11.2174 90.9909 8.26142C94.1295 3.95897 98.8682 1.10027 104.139 0.329635C109.311 -0.441405 114.578 0.879094 118.775 3.99937C124.245 8.06697 126.125 13.1898 127.055 19.636Z" fill="#65FF47"/>
<path d="M199.582 46.2582C200.635 46.1146 201.731 46.002 202.791 45.8779L202.899 46.1191C207.058 46.4347 211.614 46.2009 215.786 46.2484C216.996 46.2621 220.2 46.1995 221.311 46.349C219.096 46.5557 213.867 46.4445 211.473 46.4311C208.126 46.4121 202.784 46.5761 199.582 46.2582Z" fill="#1A5184"/>
<path d="M156.26 0.131011C162.537 -0.157485 171.444 0.120169 177.941 0.122222L221.474 0.127105C221.762 13.5464 216.483 22.5787 202.725 25.2931C201.933 25.4155 201.151 25.5091 200.388 25.7521C202.32 25.8067 204.251 25.8139 206.183 25.7746C206.184 25.775 206.186 25.7751 206.187 25.7755C210.869 26.0279 216.735 25.8572 221.507 25.8439C221.209 37.4663 214.383 44.6125 202.79 45.8781L202.899 46.1193C207.058 46.4349 211.614 46.2007 215.785 46.2482C216.996 46.2619 220.2 46.1992 221.311 46.3488C221.772 47.5666 221.484 67.5326 221.478 70.2882C208.515 70.5329 195.173 70.1595 182.178 70.297C175.102 70.3718 167.962 68.0714 162.94 62.8664C159.986 59.7839 157.92 55.961 156.959 51.8019C155.833 46.9643 156.218 35.4256 156.227 29.8195C156.243 20.0912 156.079 9.83808 156.26 0.131011Z" fill="#65FF47"/>
<path d="M225.906 0.101382C232.294 -0.082431 239.954 0.125024 246.433 0.12482L289.633 0.117007C289.845 13.5549 284.795 22.3446 271.1 25.2596C270.259 25.3826 269.318 25.4925 268.517 25.7381C269.958 25.7872 271.216 25.8229 272.61 25.7899L273.217 25.7713C278.703 25.9894 284.203 25.7616 289.661 25.8748C289.323 37.443 282.932 44.1751 271.636 45.8123L271.094 45.8865C270.049 46.0087 268.961 46.1187 267.925 46.2625C271.825 46.6136 277.079 46.3399 281.096 46.4354C282.733 46.4743 288.316 46.4968 289.624 46.3133C289.804 54.0602 289.637 62.4787 289.635 70.2801C277.611 70.5492 265.173 70.1418 253.119 70.3113C245.343 70.4205 238.279 68.798 232.619 63.0467C229.623 59.9705 227.532 56.1296 226.575 51.9451C225.499 47.2716 225.861 36.2238 225.861 30.9783L225.906 0.101382ZM288.072 46.2274C285.738 46.1781 281.768 46.284 278.245 46.3065C281.768 46.284 285.738 46.1781 288.072 46.2274ZM271.188 45.9363C271.264 45.9702 271.36 46.0028 271.478 46.0311C271.36 46.0027 271.263 45.9702 271.188 45.9363Z" fill="#65FF47"/>
<path d="M294.171 0.14575C302.447 -0.0295147 311.038 0.194108 319.355 0.124125C324.927 0.385491 330.976 -0.390447 336.475 0.427929C363.016 4.37821 361.392 42.5434 335.312 45.6243C333.836 45.7985 324.619 46.2162 324.194 46.5349L326.839 46.6332C329.238 46.7571 331.638 46.8607 334.038 46.9444L334.05 47.886C334.13 54.6126 334.026 60.7011 328.897 65.8727C326.999 67.8059 324.602 69.1762 321.972 69.8314C319.092 70.5473 313.407 70.2951 310.207 70.2908L294.154 70.277C294.022 47.159 293.926 23.2386 294.171 0.14575Z" fill="#65FF47"/>
<path d="M22.5868 0.175742C24.6857 -0.050735 31.4366 0.118001 33.9699 0.118613L58.0439 0.129425C57.9776 9.6796 54.9191 17.3512 46.2744 22.3186C41.8497 24.8611 37.8631 25.2749 32.8996 25.6941C39.5184 26.3289 45.3457 27.136 50.7375 31.4646C54.9209 34.7973 57.5753 39.682 58.0951 45.0042C58.7278 51.0732 56.917 57.1444 53.0632 61.8763C48.6893 67.2408 43.0994 69.5698 36.3765 70.2443C24.8041 70.5945 11.7257 70.31 0.0406752 70.3082L0.064556 46.3882H15.9859C18.6062 46.387 22.3931 46.4961 24.9349 46.2956C23.7656 45.9177 21.8163 45.8483 20.5212 45.6298C15.8577 44.8428 11.3955 43.2106 7.72836 40.1576C3.32222 36.4875 0.566848 31.2087 0.0757801 25.4964C-0.421003 19.3652 1.53939 13.2877 5.5255 8.60149C9.91919 3.40314 15.8724 0.752951 22.5868 0.175742Z" fill="#65FF47"/>
</svg>
