<svg width="264" height="70" viewBox="0 0 264 70" fill="none" xmlns="http://www.w3.org/2000/svg">
<path d="M65.1034 20.7439C65.4955 11.515 69.8829 4.25759 78.8776 1.21811C82.5819 -0.033633 85.801 0.0985796 89.6346 0.125716L89.6466 25.4925C89.6483 31.7368 89.7536 38.3337 89.6026 44.5541C88.5567 72.8339 51.3143 78.7357 44.8596 53.0817C44.083 57.1258 42.0483 60.8212 39.046 63.6406C34.795 67.6608 29.2438 69.5632 23.4314 69.3898C17.2243 69.1594 11.3612 66.4801 7.12614 61.9379C3.90235 58.4302 1.66703 54.1302 0.648156 49.477C-0.177027 45.7779 -0.00619165 32.4602 0.0721834 28.1082C0.23424 19.1104 -0.1956 9.04522 0.117696 0.134695C6.80386 0.0483888 12.1819 0.427893 17.4774 4.99313C22.454 9.28354 23.7947 13.9532 24.6007 20.2115C25.1012 15.6081 26.1337 11.8599 29.0017 8.08117C32.2143 3.85932 36.9707 1.08304 42.2277 0.361168C47.405 -0.318261 52.6396 1.09243 56.7736 4.28126C62.4891 8.65552 64.2154 13.9353 65.1034 20.7439Z" fill="#A5D9FF"/>
<path d="M94.2248 0.155254C112.135 -0.180585 131.394 0.132706 149.396 0.134746C149.476 11.1271 144.756 18.6972 134.1 21.6855L133.588 21.8242C132.535 21.9527 131.435 22.0665 130.396 22.2597C132.438 22.3938 134.073 22.3807 136.126 22.3428C139.951 22.5423 145.426 22.3696 149.381 22.3721C149.375 34.2611 142.458 41.6127 130.845 43.2129C132.129 43.4297 135.819 43.3508 137.27 43.3496L149.362 43.3301L149.351 69.0371C149.077 69.043 148.801 69.0472 148.526 69.0488L130.102 69.0615C119.038 69.0648 110.295 70.201 101.799 61.7363C92.6194 52.5899 94.2028 41.2449 94.2052 29.4853L94.2248 0.155254Z" fill="#A5D9FF"/>
<path d="M153.987 0.137829L208.723 0.134766C208.521 12.7728 202.739 20.6705 189.815 22.2134C191.816 22.4354 194.918 22.3627 196.977 22.3637L208.725 22.3595C207.835 35.2384 202.29 41.3141 189.507 43.3226L198.786 43.3363L208.67 43.3451L208.678 68.9753C202.023 69.212 195.05 68.9628 188.364 69.0181C183.417 69.0593 176.524 69.4205 171.926 68.0788C165.582 66.2066 160.251 61.878 157.116 56.0561C155.506 53.0572 154.457 49.7882 154.024 46.4115C153.577 42.8782 153.506 1.76826 153.987 0.137829Z" fill="#A5D9FF"/>
<path d="M213.023 0.132008L231.797 0.127936C239.897 0.121815 250.505 -0.532931 257.228 4.8113C265.667 11.5179 264.786 25.9663 258.414 33.7879C253.589 39.7095 246.147 42.2616 238.738 43.0395L238.712 43.295L240.077 43.5588L246.308 43.8132C246.333 44.5641 246.347 45.3153 246.347 46.0666C246.378 52.7699 247.119 60.2258 241.939 65.3565C240.371 66.8914 238.424 67.9807 236.297 68.512C233.781 69.1368 228.978 68.9454 226.18 68.9423L213.023 68.9201C213.352 61.7557 213.04 53.2867 213.038 45.9625L213.023 0.132008Z" fill="#A5D9FF"/>
<path d="M235.822 43.3645C236.82 43.2169 237.737 43.1304 238.737 43.04L238.71 43.2955L240.076 43.5593C238.355 43.6105 237.535 43.5601 235.822 43.3645Z" fill="#A20F4D"/>
</svg>
