<svg width="533" height="1387" viewBox="0 0 533 1387" fill="none" xmlns="http://www.w3.org/2000/svg">
<path d="M229.453 0.842683C357.737 -10.1035 471.854 86.979 491.026 211.182C491.741 215.818 492.489 220.419 493.151 225.065C488.146 235.449 472.238 258.478 465.453 270.025C446.555 302.19 428.933 332.554 413.685 366.813C410.872 373.267 408.557 379.927 406.758 386.734C405.565 391.407 403.617 403.285 399.934 405.823C394.746 405.343 387.324 394.721 384.364 390.532C359.862 355.849 332.334 350.601 306.054 389.498C300.968 383.382 288.574 359.214 283.917 350.842L258.697 304.969C253.981 296.446 244.785 280.775 241.879 272.344C232.116 244.028 228.908 215.125 214.369 188.368C198.695 159.836 174.79 172.191 154.897 187.965C113.199 221.03 142.209 261.867 168.323 293.768C166.321 328.889 144.816 363.785 123.884 391.115C112.199 406.371 98.4265 419.826 84.9496 433.496C60.1444 407.571 34.5525 357.535 24.262 323.103C20.2658 309.731 17.861 297.1 15.8156 283.391L2.8728 278.931C2.4643 276.172 2.12796 273.403 1.86525 270.626C0.532929 257.778 -0.483992 243.498 0.241349 230.623C3.03229 181.122 22.7558 131.074 53.9794 92.72C89.049 49.1003 137.817 18.5943 192.386 6.14111C205.186 3.29315 216.494 2.16588 229.453 0.842683Z" fill="white"/>
<path d="M182.499 200.612C216.71 196.724 211.705 267.045 219.787 288.148C224.267 298.966 230.458 310.28 236.277 320.352C259.735 360.948 283.066 398.77 290.486 446.001C292.449 458.496 295.559 472.256 303.834 482.318C312.819 493.242 318.285 497.139 332.239 498.78C325.564 478.234 296.405 390.334 335.603 380.517C358.061 374.892 391.117 417.55 394.806 440.229C400.755 432.476 410.95 410.11 415.482 400.416L445.606 335.2C459.189 305.657 471.944 270.573 494.945 247.342C509.162 232.983 519.794 235.356 532.423 248.903C509.264 265.559 504.288 308.373 498.311 335.188C490.027 372.353 486.104 412.391 469.45 447.168C461.357 464.068 455.292 479.201 452.792 497.906C449.161 519.081 448.124 539.148 446.121 560.324C444.697 575.371 444.404 605.644 439.788 619.336L439.599 619.886C437.56 625.936 433.323 630.025 431.302 635.005C419.514 664.056 412.94 698.057 404.35 728.238C393.801 765.036 381.905 801.438 368.688 837.363C360.486 859.641 351.241 885.824 340.759 906.875C309.265 970.138 263.948 1022.42 207.964 1065.14C190.63 1077.46 153.683 1102.59 133.352 1109.94C134.939 1098.27 139.149 1071.83 142.097 1061.34C215.031 989.63 308.027 888.682 336.332 788.152L330.968 778.972C304.281 877.33 217.201 968.095 144.951 1036.45C145.864 1020.53 151.861 993.931 154.092 977.03C155.898 963.354 160.15 938.001 163.48 924.961C169.337 914.085 179.845 901.427 186.642 891.388C247.98 800.81 286.764 681.741 272.575 571.913C267.642 533.73 244.985 489.591 236.287 451.098C224.382 398.409 210.776 346.981 199.573 294.156C194.7 272.823 159.457 257.268 155.227 233.38C154.028 226.3 155.699 219.035 159.87 213.191C165.352 205.489 173.559 202.208 182.499 200.612Z" fill="white"/>
<path d="M185.314 314.287C185.91 317.839 185.234 331.524 186.006 337.779C187.686 357.135 193.017 375.424 197.156 394.232C214.066 471.074 253.426 553.086 253.808 632.127C253.953 647.635 252.285 663.106 248.839 678.227C243.591 701.255 232.947 721.801 225.685 744.079C222.216 754.717 221.773 766.134 218.18 776.649C216.84 780.567 214.965 785.027 211.869 787.907C209.887 789.754 207.305 790.469 204.637 790.281C187.351 789.105 144.248 735.202 131.547 720.343C98.0331 678.599 88.8462 645.581 81.3265 593.186C79.3836 579.647 74.9774 553.303 70.5517 541.381C59.1982 510.795 33.5283 489.406 33.1177 453.483C33.0376 446.471 34.0191 439.304 39.0806 434.084C39.1715 438.508 39.5916 442.92 40.3357 447.283C41.9849 456.874 44.9129 469.308 53.4121 475.096C56.8569 477.442 60.8365 478.129 64.91 477.354C96.1386 471.418 144.563 387.278 159.502 360.651C168.017 345.474 175.481 328.581 185.314 314.287Z" fill="white"/>
<path d="M413.856 1187.46C431.337 1205.86 478.098 1242.68 484.901 1263.95C486.421 1268.7 486.984 1274.34 484.505 1278.88C475.284 1295.76 448.173 1301.76 431.184 1306.95C402.234 1314.76 379.686 1316.8 350.129 1319.29C289.896 1324.65 229.28 1324 169.177 1317.34C138.498 1313.72 76.4839 1304.14 54.8818 1281.29C34.2662 1259.48 108.462 1199.12 124.135 1187.59C125.046 1188.5 125.321 1189.82 126.006 1190.95C131.1 1200.11 143.998 1203.41 152.959 1206.77C201.191 1224.85 385.962 1231.55 413.856 1187.46Z" fill="white"/>
<path d="M486.365 1287.84C487.45 1295.49 487.085 1333.23 485.035 1339.96C482.79 1347.32 473.446 1353.22 467.007 1356.62C454.134 1363.41 439.798 1367.11 425.746 1370.6C340.989 1391.65 181.232 1392.96 97.6081 1366.95C81.9891 1362.09 60.0484 1355.51 51.9441 1340.06C50.4783 1333.37 50.8961 1295.72 52.0596 1288.36C55.1948 1296.22 61.0841 1300.6 68.4436 1304.51C146.285 1345.98 356.339 1341.28 440.813 1315.54C456.386 1310.8 478.281 1303.06 486.365 1287.84Z" fill="white"/>
<path d="M352.35 977.384C354.988 978.921 353.534 985.041 353.472 988.187C353.328 994.661 353.878 1001.14 355.114 1007.51C360.184 1034.63 374.092 1065.87 385.706 1090.9C389.916 1099.98 399.499 1116.52 402.241 1125.1C384.475 1129.35 353.734 1136.59 336.447 1139.05C294.274 1145.07 223.649 1148.06 183.117 1137.31C156.6 1131.51 149.494 1129.16 124.381 1119.56C139.966 1113.88 158.575 1110.94 174.798 1105.38C233.407 1085.28 284.514 1051.92 325.849 1005.7C332.641 998.103 343.766 983.366 351.63 977.882L352.35 977.384Z" fill="white"/>
<path d="M49.8343 520.673C56.3776 526.579 65.0903 584.538 66.3736 596.231C67.4424 605.969 67.5348 615.726 68.3194 625.476C71.3319 662.917 112.41 718.402 134.133 749.383C142.544 761.378 151.362 776.663 162.563 786.138C176.67 798.068 197.013 800.175 207.733 809.485L208.352 810.033C204.992 817.878 199.293 828.061 195.24 835.797L173.035 878.376C168.845 885.911 162.744 901.744 157.452 907.388C156.078 908.853 154.688 909.437 152.669 909.437C145.529 909.466 138.197 904.472 133.492 899.485C99.54 863.524 100.698 754.572 86.1526 703.369C84.095 696.123 81.4628 687.784 77.0458 681.62C74.48 678.038 70.849 674.96 68.9068 670.979C65.9752 664.971 65.0282 657.22 62.9641 650.774C58.677 637.385 52.7754 624.899 50.3821 610.903C47.2094 592.348 53.5137 578.528 53.8522 560.669C54.1092 547.144 49.4071 534.085 49.8343 520.673Z" fill="white"/>
<path d="M123.833 1135.19C149.909 1178.08 383.832 1177.38 411.702 1135.42C411.383 1146.68 411.947 1158.45 411.071 1169.61C404.252 1182 377.752 1189.05 364.607 1191.67C306.584 1203.13 246.811 1203.41 188.292 1195.17C170.699 1192.7 137.95 1186.35 125.344 1172.19C121.633 1168.02 122.574 1141.62 123.833 1135.19Z" fill="white"/>
</svg>
